<svg width="160" height="160" viewBox="0 0 160 160" fill="none" xmlns="http://www.w3.org/2000/svg">
<path d="M29.034 107.771L37.8862 118.943H41.9603L34.0527 109.208C35.8666 108.964 37.2748 108.237 38.2832 107.03C39.2916 105.823 39.7957 104.242 39.7957 102.287C39.7957 100.712 39.3988 99.3329 38.6048 98.1458C37.8109 96.9588 36.7446 96.0994 35.403 95.5677C34.6206 95.3033 33.9455 95.1337 33.3747 95.0676C32.8038 95.0015 31.8592 94.967 30.5408 94.967H25.78V119.207L29.0311 118.676V107.768L29.034 107.771ZM29.034 97.8297H32.1519L33.2906 98.0654C34.2961 98.3786 35.0727 98.9391 35.6203 99.7438C36.1679 100.551 36.4403 101.491 36.4403 102.566C36.4403 104.113 35.9709 105.311 35.0321 106.162C34.0933 107.013 32.7749 107.438 31.0769 107.438H29.0311V97.8297H29.034Z" fill="#645349"/>
<path d="M133.872 147.052L127.666 134.872H123.922L132.076 150.162L127.738 158.848H131.221L143.31 134.872H139.798L133.872 147.052Z" fill="#645349"/>
<path d="M85.8183 118.943H89.168L77.0907 93.6968L64.8889 118.943H68.3284L72.1184 111.031H82.0514L85.8183 118.943ZM73.2775 108.392L77.0849 100.106L80.8315 108.392H73.2804H73.2775Z" fill="#645349"/>
<path d="M0 158.848H3.43946L7.22953 150.935H17.1625L20.9294 158.848H24.279L12.2018 133.601L0 158.848ZM8.38857 148.297L12.196 140.011L15.9426 148.297H8.39147H8.38857Z" fill="#645349"/>
<path d="M14.8212 119.377C15.9831 119.377 17.2001 119.179 18.4751 118.779L19.5153 118.414L20.6222 117.883L19.382 115.023C17.9738 115.911 16.467 116.353 14.856 116.353C12.1293 116.353 9.85469 115.46 8.03499 113.669C6.2124 111.878 5.30255 109.66 5.30255 107.01C5.30255 104.36 6.22978 102.184 8.08425 100.35C9.93872 98.5166 12.1728 97.5998 14.7893 97.5998C15.818 97.5998 16.8002 97.7435 17.7391 98.0309L18.2085 98.2292L18.8112 98.5626L20.4194 95.8695C20.1296 95.7143 19.9326 95.6137 19.834 95.5706C19.7326 95.5275 19.5935 95.47 19.4139 95.4039L18.675 95.1366C17.4001 94.7371 16.0498 94.5388 14.6184 94.5388C11.0862 94.5388 8.07556 95.7546 5.58361 98.1861C3.09167 100.618 1.8457 103.546 1.8457 106.975C1.8457 110.579 3.07429 113.545 5.53436 115.879C7.99153 118.213 11.0891 119.377 14.8212 119.377Z" fill="#645349"/>
<path d="M60.9628 116.083H49.6303V108.237H58.4825V105.346H49.6303V97.8297H60.1254L59.656 94.97H46.3792V118.943H60.4934L60.9628 116.083Z" fill="#645349"/>
<path d="M105.687 94.97H89.8981L89.3621 97.8297H95.8643V119.21L99.1183 118.679V97.8297H105.218L105.687 94.97Z" fill="#645349"/>
<path d="M113.861 94.7371L110.607 95.2027V119.21L113.861 118.679V94.7371Z" fill="#645349"/>
<path d="M148.67 116.083V108.237H157.52V105.346H148.67V97.8297H159.163L158.693 94.97H145.419V118.943H159.531L160 116.083H148.67Z" fill="#645349"/>
<path d="M37.7327 148.503H45.1419V154.53L44.1016 155.16L43.3628 155.556C42.76 155.821 42.1718 155.999 41.6039 156.085C41.036 156.172 40.3348 156.217 39.5089 156.217C35.4204 156.217 32.5373 154.364 30.8596 150.65C30.2772 149.348 29.9874 148.066 29.9874 146.808C29.9874 144.267 30.8915 142.071 32.7025 140.214C34.5135 138.358 36.6258 137.432 39.0395 137.432C40.9606 137.432 42.7948 137.924 44.5363 138.909L45.9764 139.826L47.7208 137.332C47.1615 136.912 46.7472 136.61 46.4806 136.435C46.2111 136.257 45.9445 136.101 45.675 135.969C45.3389 135.748 44.7362 135.492 43.864 135.205C43.0585 134.894 42.395 134.702 41.8705 134.624C41.346 134.547 40.894 134.498 40.5115 134.475C40.1319 134.452 39.7523 134.44 39.3728 134.44C35.8638 134.44 32.8705 135.667 30.3873 138.122C27.9069 140.576 26.6667 143.505 26.6667 146.911C26.6667 150.317 27.9069 153.203 30.3873 155.634C32.8676 158.066 35.829 159.281 39.2713 159.281C41.036 159.281 42.902 158.893 44.8695 158.12L46.5443 157.359L48.3872 156.229V145.615H38.263L37.7269 148.509L37.7327 148.503Z" fill="#645349"/>
<path d="M58.7518 148.139H67.604V145.247H58.7518V137.731H69.247L68.7776 134.872H55.5007V158.848H69.615L70.0844 155.988H58.7518V148.139Z" fill="#645349"/>
<path d="M92.1757 152.053L75.2798 133.578V159.112L78.5309 158.58V141.488L95.4616 160V134.639L92.1757 135.104V152.053Z" fill="#645349"/>
<path d="M114.734 156.252C112.007 156.252 109.732 155.359 107.913 153.568C106.09 151.777 105.18 149.559 105.18 146.909C105.18 144.259 106.107 142.083 107.962 140.249C109.816 138.416 112.05 137.499 114.667 137.499C115.696 137.499 116.678 137.642 117.617 137.93L118.086 138.128L118.689 138.462L120.297 135.768C120.007 135.613 119.81 135.513 119.712 135.47C119.61 135.426 119.471 135.369 119.292 135.303L118.553 135.036C117.278 134.636 115.927 134.438 114.496 134.438C110.964 134.438 107.953 135.654 105.461 138.085C102.969 140.517 101.723 143.445 101.723 146.874C101.723 150.478 102.952 153.444 105.412 155.778C107.869 158.112 110.967 159.276 114.699 159.276C115.861 159.276 117.078 159.078 118.353 158.678L119.393 158.313L120.5 157.781L119.26 154.922C117.851 155.81 116.345 156.252 114.734 156.252Z" fill="#645349"/>
<path d="M141.05 94.97H137.622L129.63 112.893L121.659 94.97H118.205L129.607 119.935L141.05 94.97Z" fill="#645349"/>
<path d="M108.118 8.03938L103.318 14.7786L99.3577 12.3055C94.7454 9.69685 89.5238 8.32036 84.2075 8.31052C80.9296 8.31052 77.6868 8.98072 74.6849 10.2785C71.6831 11.5763 68.9859 13.4732 66.7639 15.8501C64.3659 18.1657 62.4674 20.9351 61.1826 23.992C59.8978 27.05 59.2532 30.3321 59.2873 33.6405C59.3357 37.2321 60.153 40.7722 61.6875 44.0292C66.3041 54.0812 74.2438 59.1072 85.5066 59.1072C87.4338 59.1269 89.3599 59.011 91.2706 58.7606C92.9414 58.4895 94.5705 58.0073 96.1171 57.3284L98.151 56.258L101.01 54.5546V38.2106H80.6007L82.1297 30.3999H110V59.047L104.924 62.0624L100.338 64.1135C95.4461 66.1022 90.2179 67.166 84.9269 67.2491C80.3884 67.3092 75.8839 66.4685 71.682 64.7771C67.48 63.0858 63.6652 60.5788 60.4654 57.4038C57.1885 54.3994 54.5837 50.7521 52.8204 46.6958C51.0561 42.6407 50.1717 38.2653 50.2223 33.8526C50.175 29.4159 51.0616 25.0175 52.8237 20.9351C54.587 16.8526 57.1896 13.1758 60.4654 10.1353C63.6949 6.92642 67.5515 4.39536 71.7997 2.69525C76.0478 0.995141 80.6018 0.162042 85.1865 0.24404C86.226 0.24404 87.2809 0.244049 88.2434 0.334794C89.207 0.42554 90.5369 0.515175 91.9889 0.727278C93.8665 1.03778 95.7068 1.54399 97.4778 2.23497C99.2169 2.72587 100.89 3.41905 102.462 4.30026C103.227 4.66871 103.968 5.08742 104.678 5.55208C105.489 6.10967 106.589 6.90888 108.118 8.03938Z" fill="#645349"/>
<path d="M0 57.419L6.22264 51.6288C10.4422 56.8363 15.5384 59.4395 21.5114 59.4395C24.9654 59.6122 28.361 58.5101 31.0362 56.3486C32.2187 55.3308 33.1559 54.0636 33.7774 52.6423C34.3989 51.2199 34.6904 49.6794 34.6288 48.1324C34.6277 45.9731 33.8104 43.8925 32.3353 42.2973C31.5136 41.3385 30.4631 40.5972 29.2773 40.1413L20.8536 37.0057L17.888 36.0107C15.8475 35.3471 13.8599 34.5358 11.9404 33.5836C10.33 32.8139 8.79551 31.8999 7.35343 30.8546C5.80904 29.5777 4.63755 27.9169 3.95996 26.0452C3.03047 23.8268 2.55747 21.4488 2.56847 19.049C2.52667 16.4742 3.06347 13.9225 4.13926 11.5773C5.21505 9.23103 6.80343 7.14935 8.79111 5.47985C10.8371 3.68681 13.2142 2.29938 15.7936 1.39411C18.5634 0.438549 21.4817 -0.0304775 24.4165 0.00669531C27.5426 -0.0654637 30.6556 0.446213 33.5893 1.51438C37.2269 3.08439 40.6446 5.11246 43.7565 7.54509L38.2378 13.9377C36.1203 12.2781 33.7994 10.8896 31.3277 9.80609C29.1321 8.82648 26.7517 8.31261 24.3406 8.2984C21.056 8.21203 17.8484 9.2813 15.2898 11.3138C14.1261 12.1841 13.1856 13.3113 12.5432 14.6047C11.9008 15.8981 11.5741 17.3216 11.5895 18.7615C11.5653 20.3687 12.035 21.9452 12.9348 23.2845C13.4793 24.333 14.3538 25.1803 15.4262 25.6964C16.5075 26.3589 17.6262 26.9635 18.7746 27.5058L23.7587 29.4814L26.5416 30.5518L32.871 32.979C34.3824 33.5049 35.8288 34.1969 37.1818 35.0442C41.8502 37.7884 44.1789 42.0951 44.169 47.9662C44.2515 50.6066 43.7466 53.2327 42.6906 55.6609C41.6346 58.0892 40.0517 60.2594 38.0541 62.0186C33.9776 65.6375 28.5656 67.4469 21.8183 67.4469C17.9188 67.4972 14.0557 66.7001 10.5049 65.1105C6.58233 63.1611 3.02827 60.5601 0.00219998 57.4212L0 57.419Z" fill="#645349"/>
</svg>
